<?xml version="1.0" standalone="no"?><!DOCTYPE svg PUBLIC "-//W3C//DTD SVG 1.1//EN" "http://www.w3.org/Graphics/SVG/1.1/DTD/svg11.dtd"><svg t="1523966791232" class="icon" style="" viewBox="0 0 1024 1024" version="1.1" xmlns="http://www.w3.org/2000/svg" p-id="17513" xmlns:xlink="http://www.w3.org/1999/xlink" width="32" height="32"><defs><style type="text/css"></style></defs><path d="M502.447761 974.328358c-252.179104 0-458.507463-206.328358-458.507462-458.507462s206.328358-458.507463 458.507462-458.507463 458.507463 206.328358 458.507463 458.507463-204.41791 458.507463-458.507463 458.507462z m0-840.597015c-210.149254 0-382.089552 171.940299-382.089552 382.089553s171.940299 382.089552 382.089552 382.089552 382.089552-171.940299 382.089552-382.089552-170.029851-382.089552-382.089552-382.089553z" fill="#1296db" p-id="17514"></path><path d="M502.447761 729.791045c-15.283582 0-28.656716-13.373134-28.656716-28.656717V330.507463c0-15.283582 13.373134-28.656716 28.656716-28.656717s28.656716 13.373134 28.656717 28.656717v370.626865c0 15.283582-11.462687 28.656716-28.656717 28.656717z" fill="#1296db" p-id="17515"></path><path d="M687.761194 544.477612H317.134328c-15.283582 0-28.656716-13.373134-28.656716-28.656716s13.373134-28.656716 28.656716-28.656717H687.761194c15.283582 0 28.656716 13.373134 28.656716 28.656717s-13.373134 28.656716-28.656716 28.656716z" fill="#1296db" p-id="17516"></path></svg>