<?xml version="1.0" standalone="no"?><!DOCTYPE svg PUBLIC "-//W3C//DTD SVG 1.1//EN" "http://www.w3.org/Graphics/SVG/1.1/DTD/svg11.dtd"><svg t="1526525227692" class="icon" style="" viewBox="0 0 1024 1024" version="1.1" xmlns="http://www.w3.org/2000/svg" p-id="6252" xmlns:xlink="http://www.w3.org/1999/xlink" width="200" height="200"><defs><style type="text/css"></style></defs><path d="M412.6847 684.353864c0-150.06654 121.633247-271.701781 271.699787-271.701781s271.701781 121.65119 271.701781 271.701781c0 150.056572-121.636238 271.711749-271.701781 271.711749C534.323928 956.06661 412.6847 834.410435 412.6847 684.353864zM174.13632 616.743175c-21.060554 0-50.131834 16.811958-50.131834 37.571462l0 269.443904c0 55.360338 45.503437 100.228778 101.654281 100.228778l408.016707 0c6.140626 0 12.111787-0.498427 17.948373-1.520204 10.761049 1.021776 21.716484 1.520204 32.766621 1.520204 187.57221 0 339.627475-152.065234 339.627475-339.622491 0-171.613559-127.298374-313.497914-292.590876-336.417602L471.808165 37.436887c-8.393518-11.605385-30.894528-32.185455-40.813234-31.387971-11.394052-5.308252-29.783035 12.652083-43.464868 31.387971L14.435177 483.668027c-12.402869 14.818248-12.402869 38.887311 0 53.705559 12.40586 14.848154 32.519401 14.848154 44.923267 0L429.666123 94.553683l211.504703 252.899103c-167.144659 21.239988-296.411821 163.989613-296.411821 336.911046 0 111.07456 53.313795 209.717342 135.763666 271.701781L278.3266 956.065613c-47.71147 0-86.39941-38.139669-86.39941-85.211159L191.92719 654.31364C191.92719 633.555134 195.17893 616.743175 174.13632 616.743175zM565.520503 650.396001c-18.755825 0-33.962847 15.187085-33.962847 33.957863 0 18.740873 15.207022 33.972816 33.962847 33.972816l101.888542 0 0 101.888542c0 18.740873 15.202038 33.952879 33.957863 33.952879 18.76081 0 33.967831-15.212006 33.967831-33.952879l0-101.888542 101.883557 0c18.76081 0 33.962847-15.231943 33.962847-33.972816 0-18.770778-15.202038-33.957863-33.962847-33.957863L735.333742 650.396001 735.333742 548.503472c0-18.745857-15.212006-33.957863-33.972816-33.957863-18.750841 0-33.957863 15.197053-33.957863 33.957863l0 101.903494L565.520503 650.406966 565.520503 650.396001z" p-id="6253" fill="#1296db"></path></svg>