<?xml version="1.0" standalone="no"?><!DOCTYPE svg PUBLIC "-//W3C//DTD SVG 1.1//EN" "http://www.w3.org/Graphics/SVG/1.1/DTD/svg11.dtd"><svg t="1526439283250" class="icon" style="" viewBox="0 0 1024 1024" version="1.1" xmlns="http://www.w3.org/2000/svg" p-id="1047" xmlns:xlink="http://www.w3.org/1999/xlink" width="200" height="200"><defs><style type="text/css"></style></defs><path d="M694.88 940H329.12c-58 0-105.12-43.04-105.12-96v-448a32 32 0 0 1 64 0v448c0 17.36 18.88 32 41.12 32h365.76c22.32 0 41.12-14.64 41.12-32v-448a32 32 0 0 1 64 0v448c0 52.96-47.2 96-105.12 96zM864 304H160a32 32 0 0 1 0-64h704a32 32 0 0 1 0 64z" p-id="1048" fill="#1296db"></path><path d="M432 812a32 32 0 0 1-32-32v-320a32 32 0 0 1 64 0v320a32 32 0 0 1-32 32zM592 812a32 32 0 0 1-32-32v-320a32 32 0 0 1 64 0v320a32 32 0 0 1-32 32zM384 276a32 32 0 0 1-32-32 160 160 0 0 1 276.16-110 32 32 0 1 1-46.48 44A95.12 95.12 0 0 0 512 148a96 96 0 0 0-96 96 32 32 0 0 1-32 32z" p-id="1049" fill="#1296db"></path></svg>