<?xml version="1.0" standalone="no"?><!DOCTYPE svg PUBLIC "-//W3C//DTD SVG 1.1//EN" "http://www.w3.org/Graphics/SVG/1.1/DTD/svg11.dtd"><svg t="1524475022252" class="icon" style="" viewBox="0 0 1024 1024" version="1.1" xmlns="http://www.w3.org/2000/svg" p-id="4856" xmlns:xlink="http://www.w3.org/1999/xlink" width="32" height="32"><defs><style type="text/css"></style></defs><path d="M480 422.4l64 0 0-128 147.2 0L537.6 134.4C524.8 128 499.2 128 486.4 134.4L332.8 294.4l147.2 0L480 422.4z" p-id="4857" fill="#1296db"></path><path d="M422.4 480l-128 0L294.4 332.8 134.4 486.4C128 499.2 128 524.8 134.4 537.6l160 160L294.4 544l128 0L422.4 480z" p-id="4858" fill="#1296db"></path><path d="M889.6 486.4l-160-160 0 147.2-128 0 0 64 128 0 0 147.2 160-160C896 524.8 896 499.2 889.6 486.4z" p-id="4859" fill="#1296db"></path><path d="M544 601.6l-64 0 0 128L332.8 729.6l160 160c12.8 12.8 32 12.8 44.8 0l160-160L544 729.6 544 601.6z" p-id="4860" fill="#1296db"></path></svg>