<?xml version="1.0" standalone="no"?><!DOCTYPE svg PUBLIC "-//W3C//DTD SVG 1.1//EN" "http://www.w3.org/Graphics/SVG/1.1/DTD/svg11.dtd"><svg t="1524281339617" class="icon" style="" viewBox="0 0 1024 1024" version="1.1" xmlns="http://www.w3.org/2000/svg" p-id="4838" xmlns:xlink="http://www.w3.org/1999/xlink" width="32" height="32"><defs><style type="text/css"></style></defs><path d="M454.4 668.5c-57.2 0-110.9-22.3-151.3-62.7s-62.7-94.1-62.7-151.3 22.3-110.9 62.7-151.3c40.4-40.4 94.1-62.7 151.3-62.7s110.9 22.3 151.3 62.7c40.4 40.4 62.7 94.1 62.7 151.3s-22.3 110.9-62.7 151.3-94.2 62.7-151.3 62.7z m0-391.2c-47.3 0-91.9 18.4-125.3 51.9-33.5 33.5-51.9 78-51.9 125.3s18.4 91.9 51.9 125.3c33.5 33.5 78 51.9 125.3 51.9s91.9-18.4 125.3-51.9c33.5-33.5 51.9-78 51.9-125.3s-18.4-91.9-51.9-125.3c-33.5-33.4-78-51.9-125.3-51.9z" fill="#1296db" p-id="4839"></path><path d="M765.6 784.1c-4.7 0-9.4-1.8-13-5.4L579.7 605.9c-7.2-7.2-7.2-18.8 0-26s18.8-7.2 26 0l172.9 172.9c7.2 7.2 7.2 18.8 0 26-3.6 3.5-8.3 5.3-13 5.3z" fill="#1296db" p-id="4840"></path><path d="M512.2 977.9c-62.8 0-123.8-12.3-181.2-36.6-55.4-23.4-105.2-57-148-99.8-42.7-42.7-76.3-92.5-99.8-148-24.3-57.4-36.6-118.4-36.6-181.2s12.3-123.8 36.6-181.2c23.4-55.4 57-105.2 99.8-148s92.5-76.3 148-99.8C388.4 59 449.4 46.7 512.2 46.7 575 46.7 636 59 693.4 83.3c55.4 23.4 105.2 57 148 99.8 42.7 42.7 76.3 92.5 99.8 148 24.3 57.4 36.6 118.4 36.6 181.2s-12.3 123.8-36.6 181.2c-23.4 55.4-57 105.2-99.8 148-42.7 42.7-92.5 76.3-148 99.8-57.4 24.3-118.4 36.6-181.2 36.6z m0-894.3C275.7 83.6 83.4 276 83.4 512.4c0 236.5 192.4 428.8 428.8 428.8 236.5 0 428.8-192.4 428.8-428.8 0-236.5-192.4-428.8-428.8-428.8z" fill="#1296db" p-id="4841"></path></svg>